<?xml version="1.0" encoding="UTF-8"?>
<svg id="Camada_2" data-name="Camada 2" xmlns="http://www.w3.org/2000/svg" xmlns:xlink="http://www.w3.org/1999/xlink" viewBox="0 0 159.76 158.18">
  <defs>
    <style>
      .cls-1 {
        letter-spacing: .41em;
      }

      .cls-2 {
        fill: url(#linear-gradient-38);
      }

      .cls-2, .cls-3, .cls-4, .cls-5, .cls-6, .cls-7, .cls-8, .cls-9, .cls-10, .cls-11, .cls-12, .cls-13, .cls-14, .cls-15, .cls-16, .cls-17, .cls-18, .cls-19, .cls-20, .cls-21, .cls-22, .cls-23, .cls-24, .cls-25, .cls-26, .cls-27, .cls-28, .cls-29, .cls-30, .cls-31, .cls-32, .cls-33, .cls-34, .cls-35, .cls-36, .cls-37, .cls-38, .cls-39, .cls-40, .cls-41, .cls-42, .cls-43, .cls-44, .cls-45, .cls-46, .cls-47 {
        stroke-width: 0px;
      }

      .cls-3 {
        fill: url(#linear-gradient-12);
      }

      .cls-4 {
        fill: url(#linear-gradient-17);
      }

      .cls-5 {
        fill: url(#linear-gradient-19);
      }

      .cls-6 {
        fill: url(#linear-gradient-33);
      }

      .cls-7 {
        fill: url(#linear-gradient);
      }

      .cls-8 {
        fill: url(#linear-gradient-21);
      }

      .cls-9 {
        fill: url(#linear-gradient-6);
      }

      .cls-10 {
        fill: url(#linear-gradient-42);
      }

      .cls-11 {
        fill: url(#linear-gradient-15);
      }

      .cls-12 {
        fill: url(#linear-gradient-11);
      }

      .cls-13 {
        fill: url(#linear-gradient-5);
      }

      .cls-14 {
        fill: url(#linear-gradient-31);
      }

      .cls-15 {
        fill: url(#linear-gradient-34);
      }

      .cls-16 {
        fill: url(#linear-gradient-41);
      }

      .cls-17 {
        fill: url(#linear-gradient-40);
      }

      .cls-18 {
        fill: url(#linear-gradient-13);
      }

      .cls-19 {
        fill: url(#linear-gradient-23);
      }

      .cls-20 {
        fill: url(#linear-gradient-25);
      }

      .cls-21 {
        fill: url(#linear-gradient-43);
      }

      .cls-22 {
        fill: url(#linear-gradient-16);
      }

      .cls-23 {
        fill: url(#linear-gradient-22);
      }

      .cls-24 {
        fill: url(#linear-gradient-35);
      }

      .cls-25 {
        fill: url(#linear-gradient-32);
      }

      .cls-26 {
        fill: url(#linear-gradient-20);
      }

      .cls-27 {
        fill: url(#linear-gradient-14);
      }

      .cls-28 {
        fill: url(#linear-gradient-2);
      }

      .cls-29 {
        fill: url(#linear-gradient-45);
      }

      .cls-48 {
        fill: #bababa;
        font-family: GoodTimesBk-Regular, 'Good Times';
        font-size: 10.24px;
      }

      .cls-30 {
        fill: url(#linear-gradient-7);
      }

      .cls-31 {
        fill: url(#linear-gradient-39);
      }

      .cls-32 {
        fill: url(#linear-gradient-3);
      }

      .cls-33 {
        fill: url(#linear-gradient-9);
      }

      .cls-34 {
        fill: url(#linear-gradient-27);
      }

      .cls-35 {
        fill: url(#linear-gradient-36);
      }

      .cls-36 {
        fill: url(#linear-gradient-8);
      }

      .cls-37 {
        fill: url(#linear-gradient-24);
      }

      .cls-38 {
        fill: url(#linear-gradient-26);
      }

      .cls-39 {
        fill: url(#linear-gradient-18);
      }

      .cls-40 {
        fill: url(#linear-gradient-30);
      }

      .cls-41 {
        fill: url(#linear-gradient-44);
      }

      .cls-42 {
        fill: url(#linear-gradient-29);
      }

      .cls-43 {
        fill: url(#linear-gradient-46);
      }

      .cls-49 {
        letter-spacing: .5em;
      }

      .cls-44 {
        fill: url(#linear-gradient-28);
      }

      .cls-45 {
        fill: url(#linear-gradient-10);
      }

      .cls-46 {
        fill: url(#linear-gradient-4);
      }

      .cls-50 {
        letter-spacing: .5em;
      }

      .cls-47 {
        fill: url(#linear-gradient-37);
      }
    </style>
    <linearGradient id="linear-gradient" x1="0" y1="119.92" x2="159.76" y2="119.92" gradientUnits="userSpaceOnUse">
      <stop offset="0" stop-color="#436cc4"/>
      <stop offset="1" stop-color="#c512d4"/>
    </linearGradient>
    <linearGradient id="linear-gradient-2" x1="39.26" y1="88.14" x2="113.3" y2="14.09" xlink:href="#linear-gradient"/>
    <linearGradient id="linear-gradient-3" x1="32.37" y1="81.23" x2="106.4" y2="7.21" xlink:href="#linear-gradient"/>
    <linearGradient id="linear-gradient-4" x1="5.19" y1="54.04" x2="79.21" y2="-19.98" xlink:href="#linear-gradient"/>
    <linearGradient id="linear-gradient-5" x1="8.1" y1="56.97" x2="82.14" y2="-17.07" xlink:href="#linear-gradient"/>
    <linearGradient id="linear-gradient-6" x1="6.26" y1="55.14" x2="80.31" y2="-18.91" xlink:href="#linear-gradient"/>
    <linearGradient id="linear-gradient-7" x1="10.52" y1="59.39" x2="84.55" y2="-14.65" xlink:href="#linear-gradient"/>
    <linearGradient id="linear-gradient-8" x1="24.17" y1="73.03" x2="98.19" y2="-.99" xlink:href="#linear-gradient"/>
    <linearGradient id="linear-gradient-9" x1="13.38" y1="62.26" x2="87.43" y2="-11.79" xlink:href="#linear-gradient"/>
    <linearGradient id="linear-gradient-10" x1="16.74" y1="65.62" x2="90.78" y2="-8.43" xlink:href="#linear-gradient"/>
    <linearGradient id="linear-gradient-11" x1="20.43" y1="69.31" x2="94.48" y2="-4.74" xlink:href="#linear-gradient"/>
    <linearGradient id="linear-gradient-12" x1="27.77" y1="76.64" x2="101.8" y2="2.61" xlink:href="#linear-gradient"/>
    <linearGradient id="linear-gradient-13" x1="4.96" y1="53.84" x2="79" y2="-20.21" xlink:href="#linear-gradient"/>
    <linearGradient id="linear-gradient-14" x1="31.91" y1="80.78" x2="105.95" y2="6.74" xlink:href="#linear-gradient"/>
    <linearGradient id="linear-gradient-15" x1="30.24" y1="79.12" x2="104.29" y2="5.08" xlink:href="#linear-gradient"/>
    <linearGradient id="linear-gradient-16" x1="28.99" y1="77.87" x2="103.04" y2="3.82" xlink:href="#linear-gradient"/>
    <linearGradient id="linear-gradient-17" x1="26.92" y1="75.8" x2="100.96" y2="1.75" xlink:href="#linear-gradient"/>
    <linearGradient id="linear-gradient-18" x1="33.85" y1="82.73" x2="107.9" y2="8.68" xlink:href="#linear-gradient"/>
    <linearGradient id="linear-gradient-19" x1="6.66" y1="55.55" x2="80.71" y2="-18.51" xlink:href="#linear-gradient"/>
    <linearGradient id="linear-gradient-20" x1="14.87" y1="63.75" x2="88.91" y2="-10.3" xlink:href="#linear-gradient"/>
    <linearGradient id="linear-gradient-21" x1="7.75" y1="56.62" x2="81.79" y2="-17.41" xlink:href="#linear-gradient"/>
    <linearGradient id="linear-gradient-22" x1="18.22" y1="67.1" x2="92.26" y2="-6.94" xlink:href="#linear-gradient"/>
    <linearGradient id="linear-gradient-23" x1="25.65" y1="74.52" x2="99.69" y2=".49" xlink:href="#linear-gradient"/>
    <linearGradient id="linear-gradient-24" x1="12" y1="60.88" x2="86.04" y2="-13.16" xlink:href="#linear-gradient"/>
    <linearGradient id="linear-gradient-25" x1="29.26" y1="78.12" x2="103.29" y2="4.09" xlink:href="#linear-gradient"/>
    <linearGradient id="linear-gradient-26" x1="21.92" y1="70.8" x2="95.96" y2="-3.24" xlink:href="#linear-gradient"/>
    <linearGradient id="linear-gradient-27" x1="9.58" y1="58.46" x2="83.62" y2="-15.58" xlink:href="#linear-gradient"/>
    <linearGradient id="linear-gradient-28" x1="6.44" y1="55.33" x2="80.49" y2="-18.72" xlink:href="#linear-gradient"/>
    <linearGradient id="linear-gradient-29" x1="33.39" y1="82.27" x2="107.43" y2="8.22" xlink:href="#linear-gradient"/>
    <linearGradient id="linear-gradient-30" x1="31.73" y1="80.6" x2="105.76" y2="6.58" xlink:href="#linear-gradient"/>
    <linearGradient id="linear-gradient-31" x1="30.48" y1="79.36" x2="104.52" y2="5.32" xlink:href="#linear-gradient"/>
    <linearGradient id="linear-gradient-32" x1="28.41" y1="77.28" x2="102.44" y2="3.24" xlink:href="#linear-gradient"/>
    <linearGradient id="linear-gradient-33" x1="20.09" y1="68.95" x2="94.12" y2="-5.08" xlink:href="#linear-gradient"/>
    <linearGradient id="linear-gradient-34" x1="16.72" y1="65.6" x2="90.77" y2="-8.44" xlink:href="#linear-gradient"/>
    <linearGradient id="linear-gradient-35" x1="13.86" y1="62.73" x2="87.9" y2="-11.31" xlink:href="#linear-gradient"/>
    <linearGradient id="linear-gradient-36" x1="23.79" y1="72.65" x2="97.81" y2="-1.38" xlink:href="#linear-gradient"/>
    <linearGradient id="linear-gradient-37" x1="11.44" y1="60.32" x2="85.49" y2="-13.73" xlink:href="#linear-gradient"/>
    <linearGradient id="linear-gradient-38" x1="8.52" y1="57.4" x2="82.56" y2="-16.65" xlink:href="#linear-gradient"/>
    <linearGradient id="linear-gradient-39" x1="27.51" y1="76.39" x2="101.55" y2="2.34" xlink:href="#linear-gradient"/>
    <linearGradient id="linear-gradient-40" x1="31.11" y1="79.99" x2="105.15" y2="5.94" xlink:href="#linear-gradient"/>
    <linearGradient id="linear-gradient-41" x1="9.61" y1="58.48" x2="83.65" y2="-15.56" xlink:href="#linear-gradient"/>
    <linearGradient id="linear-gradient-42" x1="8.3" y1="57.18" x2="82.35" y2="-16.86" xlink:href="#linear-gradient"/>
    <linearGradient id="linear-gradient-43" x1="35.25" y1="84.13" x2="109.3" y2="10.08" xlink:href="#linear-gradient"/>
    <linearGradient id="linear-gradient-44" x1="33.59" y1="82.46" x2="107.63" y2="8.42" xlink:href="#linear-gradient"/>
    <linearGradient id="linear-gradient-45" x1="32.34" y1="81.21" x2="106.38" y2="7.17" xlink:href="#linear-gradient"/>
    <linearGradient id="linear-gradient-46" x1="30.26" y1="79.14" x2="104.31" y2="5.09" xlink:href="#linear-gradient"/>
  </defs>
  <g id="Camada_1-2" data-name="Camada 1">
    <path class="cls-7" d="m37.88,116.04c9.37,0,14.43,3.51,14.43,10.52,0,7.87-4.77,12.59-16.5,12.59H0l7.64-9.89h29.08c2.82,0,4.08-.8,4.08-2.82s-1.26-2.76-4.08-2.76H15.81c-9.89,0-14.43-4.43-14.43-11.04,0-7.24,4.83-11.96,16.5-11.96h33.39l-7.64,10h-26.67c-2.76,0-4.08.69-4.08,2.64s1.32,2.7,4.08,2.7h20.92Zm64.37,23.11h-17.99l-11.61-10.12c-3.97-3.45-5.81-5.12-7.13-6.44.06,1.78.17,3.68.17,5.52v11.04h-11.96v-38.45h11.96v8.91c0,2.36-.11,4.71-.23,6.72,1.49-1.38,3.56-3.33,7.07-6.26l11.09-9.37h17.24l-14.71,11.04c-5.12,3.85-7.47,5.58-9.94,7.07,2.18,1.49,5.17,3.62,10.12,7.64l15.92,12.7Zm57.52-38.45l-22.82,25.75v12.7h-11.96v-12.76l-23.45-25.69h15.29l9.2,10.69c1.21,1.38,4.43,4.89,5.23,6.04.75-1.09,2.07-2.76,4.83-6.09l8.74-10.63h14.94Z"/>
    <text class="cls-48" transform="translate(31.84 156.13)"><tspan class="cls-49" x="0" y="0">tr</tspan><tspan class="cls-1" x="26.98" y="0">a</tspan><tspan class="cls-50" x="41.19" y="0">cker</tspan></text>
    <g>
      <path class="cls-28" d="m115.53,48.16c-1.2-2.81-2.96-5.24-5.22-7.22-2.21-1.94-4.91-3.63-8.01-5.05-3.05-1.39-6.51-2.68-10.27-3.83-2.57-.83-4.38-1.36-5.83-1.79-2.25-.67-3.49-1.03-5.18-1.78-1.17-.51-2.05-1.07-2.64-1.66-.48-.48-.71-1.08-.71-1.85,0-1.04.36-1.68,1.17-2.1,1.02-.53,2.45-.79,4.25-.79,2.32,0,4.73.39,7.18,1.15,5.1,1.6,9.48,3.55,13.81,6.14l1.02.61,10.7-20.51-1.01-.51c-6.27-3.14-13.28-6.28-22.06-8.06-2.93-.59-5.89-.89-8.81-.89-8.56,0-16.18,2.51-22.04,7.25-.02.01-.03.03-.04.04-.42-.37-1.13-.36-1.53.04-.21.21-.32.5-.32.79,0,.23.08.46.21.65-1.16,1.13-2.21,2.36-3.14,3.7-.03-.03-.06-.05-.09-.08-.51-.35-1.2-.21-1.55.3-.35.51-.21,1.2.3,1.55.06.04.12.06.18.08-.36.62-.7,1.26-1.02,1.91-.14.28-.26.58-.38.87-.07-.05-.15-.1-.24-.14-.57-.23-1.22.04-1.45.61-.23.57.04,1.22.61,1.45.11.04.21.06.32.07-.32.98-.59,1.99-.8,3.03-.11-.06-.22-.11-.35-.13-.61-.11-1.19.3-1.29.91-.11.61.3,1.18.91,1.29.06.01.13.02.19.02.07,0,.14,0,.2-.02-.13,1.03-.22,2.08-.26,3.16-.12-.05-.25-.08-.39-.08-.62,0-1.12.49-1.13,1.1,0,.62.49,1.12,1.11,1.13h0c.14,0,.27-.03.39-.07.03,1.1.11,2.15.24,3.15-.13-.02-.26-.03-.4,0-.61.12-1,.7-.89,1.31.1.53.57.91,1.09.91.07,0,.14-.01.21-.02.13-.03.24-.07.35-.14.24,1.04.54,2.03.91,2.97-.1.02-.19.05-.29.09-.55.28-.76.95-.49,1.5.2.39.59.61.99.61.17,0,.35-.04.51-.12.07-.03.13-.08.19-.12.49.9,1.05,1.76,1.68,2.58-.02.02-.04.03-.06.05-.44.43-.45,1.14-.02,1.58.22.22.51.33.8.33.26,0,.53-.09.74-.28.71.73,1.5,1.42,2.36,2.08-.19.49-.02,1.06.44,1.36.18.12.4.17.6.17.27,0,.53-.1.74-.28.7.45,1.42.89,2.2,1.32.2.11.42.22.63.33-.02.44.23.86.65,1.05.15.07.31.1.47.1.25,0,.5-.1.7-.25.67.32,1.37.63,2.1.94-.19.02-.37.08-.51.22-.16.16-.25.37-.25.6s.09.44.25.59c.16.16.37.25.59.25s.44-.09.59-.25c.16-.16.25-.37.25-.59,0-.18-.06-.36-.17-.5.64.26,1.29.51,1.97.77.05.2.15.38.29.52.21.21.49.32.79.32.24,0,.47-.08.66-.22.16.05.31.11.46.16,2.78.96,5.23,1.68,7.39,2.31,4.14,1.22,7.12,2.1,8.94,3.62.71.59,1.04,1.25,1.04,2.07,0,.7-.29,1.21-.94,1.66-.52.36-1.73.78-4.48.78-3.09,0-6.17-.45-9.14-1.33-3.03-.9-5.77-1.92-8.17-3.05-2.84-1.27-5.61-2.75-8.23-4.4l-1.05-.66-.36.72c-.43-.32-1.08-.29-1.47.09-.21.21-.32.5-.32.79s.12.59.32.79c.14.14.32.23.51.28l-3.05,6.21c-.06-.04-.12-.08-.19-.12-.55-.27-1.22-.04-1.49.51-.27.55-.04,1.22.51,1.49.07.03.14.06.21.07l-1.45,2.95c-.06-.04-.12-.08-.18-.12-.56-.27-1.22-.04-1.49.51-.27.55-.04,1.22.51,1.49.07.03.14.05.21.07l-2.25,4.58c-.43-.32-1.09-.29-1.47.09-.21.21-.32.5-.32.79s.12.59.32.79c.21.21.5.32.79.32.26,0,.52-.1.72-.27l.19.12c9.74,5.79,24.21,9.67,36,9.67,3.81,0,7.65-.45,11.44-1.35,3.82-.91,7.3-2.41,10.34-4.46,3.08-2.08,5.59-4.89,7.47-8.36,1.88-3.48,2.83-7.8,2.83-12.86,0-3.96-.61-7.38-1.81-10.19Z"/>
      <path class="cls-32" d="m61.95,51.26c-.06.05-.08.12-.08.2,0,.07.03.15.08.2.05.05.12.08.2.08s.14-.03.19-.08c.06-.05.08-.12.08-.2,0-.08-.03-.15-.08-.2-.1-.1-.29-.1-.39,0Z"/>
      <path class="cls-46" d="m46.14,13.47c.09-.13.06-.3-.07-.38-.13-.08-.3-.06-.39.07-.08.13-.05.3.08.39.05.03.1.04.16.04.09,0,.18-.04.23-.12Z"/>
      <path class="cls-13" d="m42.01,22.83c-.15-.03-.3.07-.32.23-.03.15.08.3.23.32h.04c.13,0,.25-.09.28-.23.02-.15-.08-.3-.23-.32Z"/>
      <path class="cls-9" d="m43.41,18.28c.11,0,.22-.07.26-.17.06-.15-.01-.31-.16-.36-.14-.06-.31,0-.36.15-.06.14.01.31.15.36.04.02.07.02.11.02Z"/>
      <path class="cls-30" d="m41.78,28.4c0-.16-.12-.28-.27-.28-.16,0-.28.12-.28.27,0,.16.13.28.28.28.16,0,.28-.12.28-.28Z"/>
      <path class="cls-36" d="m51.02,46.1c-.13-.08-.3-.04-.38.08-.08.13-.04.3.08.38.04.03.1.04.15.04.09,0,.18-.04.23-.13.08-.13.04-.3-.08-.38Z"/>
      <path class="cls-33" d="m41.89,33.42c-.15.03-.25.18-.22.33h0c.03.13.14.23.27.23.02,0,.04,0,.06,0,.15-.03.25-.18.22-.33-.03-.15-.18-.25-.33-.22Z"/>
      <path class="cls-45" d="m43.51,38.47c-.14.07-.2.23-.12.37.05.09.14.15.25.15.04,0,.09,0,.13-.03.13-.07.19-.24.12-.37-.07-.14-.24-.2-.37-.12Z"/>
      <path class="cls-12" d="m46.54,42.81c-.11.11-.11.28,0,.39.06.06.13.08.2.08s.14-.02.2-.08c.11-.11.11-.28,0-.4-.11-.11-.28-.11-.4,0Z"/>
      <path class="cls-3" d="m55.55,49.14c.11,0,.21-.06.25-.16.07-.14,0-.31-.13-.37-.14-.06-.31,0-.37.14-.07.14,0,.3.13.37.04.02.08.03.12.03Z"/>
      <path class="cls-18" d="m50.68,8.4c.07,0,.15-.03.2-.08.06-.06.08-.12.08-.19,0-.08-.03-.14-.08-.2-.11-.1-.28-.11-.4,0-.05.06-.08.12-.08.2,0,.07.03.14.08.19.05.05.12.08.19.08Z"/>
      <path class="cls-27" d="m37.76,74.54c-.06.05-.08.12-.08.19,0,.08.03.15.08.2.05.05.12.08.2.08s.14-.03.2-.08c.06-.06.08-.12.08-.2,0-.07-.03-.14-.08-.19-.1-.11-.29-.11-.39,0Z"/>
      <path class="cls-11" d="m41.04,68.45s.08.03.12.03c.11,0,.21-.06.25-.16.07-.13.01-.3-.12-.37-.14-.07-.31-.01-.37.12-.07.14-.01.31.12.37Z"/>
      <path class="cls-22" d="m43.82,63.42c.07-.14,0-.31-.13-.37-.14-.07-.31-.01-.37.13-.07.13-.01.3.13.37.04.02.08.03.12.03.1,0,.2-.06.25-.16Z"/>
      <path class="cls-4" d="m47.58,55.41c.07,0,.15-.03.2-.08.06-.06.08-.12.08-.2,0-.07-.03-.14-.08-.19-.1-.11-.28-.11-.4,0-.05.06-.08.12-.08.19,0,.08.03.15.08.2.05.05.12.08.19.08Z"/>
      <path class="cls-39" d="m65.51,51.85c.1-.11.16-.25.16-.39s-.06-.3-.16-.4c-.21-.21-.59-.21-.79,0-.1.1-.16.25-.16.4s.06.29.16.39c.11.11.25.17.4.17s.29-.06.4-.17Z"/>
      <path class="cls-5" d="m48.89,13.87c.18,0,.35-.08.46-.25.18-.25.11-.6-.14-.77-.26-.17-.6-.11-.78.14-.17.26-.11.6.15.77.09.07.2.09.31.09Z"/>
      <path class="cls-26" d="m44.37,33.8c.05.27.28.46.55.46.03,0,.07,0,.11-.01.3-.06.5-.35.45-.65-.06-.31-.35-.5-.65-.45-.31.06-.5.35-.45.65Z"/>
      <path class="cls-8" d="m46.38,18.56c.22,0,.43-.13.52-.35.11-.28-.02-.61-.31-.73-.29-.12-.61.02-.73.31-.11.29.02.61.31.72.07.03.14.04.21.04Z"/>
      <path class="cls-23" d="m46.36,38.22c-.28.14-.38.47-.25.75.1.19.3.3.5.3.08,0,.17-.02.25-.06.28-.14.39-.47.25-.75-.14-.27-.47-.39-.75-.25Z"/>
      <path class="cls-19" d="m54.15,45.86c-.26-.17-.6-.09-.77.17-.17.26-.1.61.17.77.09.06.19.09.3.09.18,0,.36-.09.47-.26.17-.26.09-.6-.17-.77Z"/>
      <path class="cls-37" d="m44.48,28.96c.31,0,.56-.25.56-.56,0-.31-.25-.56-.55-.56-.31,0-.56.25-.56.55,0,.31.25.56.56.56Z"/>
      <path class="cls-20" d="m58.02,48.63c-.13.28,0,.61.27.74.07.04.16.06.23.06.21,0,.41-.12.51-.32.13-.28,0-.61-.27-.74s-.61-.01-.74.27Z"/>
      <path class="cls-38" d="m49.71,43.57c.14,0,.28-.05.39-.16.22-.22.22-.57.01-.79-.22-.22-.57-.23-.79-.01-.22.21-.22.57-.01.79.11.11.26.17.4.17Z"/>
      <path class="cls-34" d="m45.03,22.56c-.31-.06-.6.15-.65.45-.06.3.15.59.45.65.03,0,.07,0,.09,0,.27,0,.5-.19.55-.46.05-.3-.15-.59-.45-.64Z"/>
      <path class="cls-44" d="m53.65,8.67c.15,0,.29-.06.4-.16.1-.1.16-.25.16-.39s-.06-.29-.17-.4c-.21-.21-.58-.21-.79,0-.11.1-.16.25-.16.4s.06.29.16.39c.1.11.25.16.4.16Z"/>
      <path class="cls-42" d="m40.53,74.34c-.11.1-.16.25-.16.39s.06.29.16.4c.1.11.25.16.4.16s.29-.06.39-.16c.11-.11.17-.25.17-.4s-.06-.29-.17-.39c-.21-.21-.58-.21-.79,0Z"/>
      <path class="cls-40" d="m44.13,68.76c.21,0,.41-.11.5-.31.13-.28.02-.61-.26-.75-.27-.14-.61-.02-.74.25-.14.28-.02.61.25.75.08.04.17.06.25.06Z"/>
      <path class="cls-14" d="m46.79,62.8c-.28-.13-.61-.02-.75.26-.14.27-.02.61.25.74.08.04.17.06.25.06.2,0,.4-.12.5-.31.14-.28.02-.61-.25-.75Z"/>
      <path class="cls-25" d="m50.95,54.74c-.21-.21-.59-.21-.79,0-.11.1-.16.25-.16.39s.06.3.16.4c.11.11.25.16.4.16s.29-.06.39-.16c.11-.11.17-.25.17-.4s-.06-.29-.16-.39Z"/>
      <path class="cls-6" d="m51.07,38.34c-.21-.41-.71-.57-1.13-.36-.41.21-.57.71-.37,1.13h0c.15.28.44.45.75.45.13,0,.26-.03.38-.09.41-.21.57-.71.37-1.13Z"/>
      <path class="cls-15" d="m49.46,33.54c-.09-.45-.52-.75-.98-.66-.45.09-.75.52-.66.98.08.4.43.67.82.67.06,0,.11,0,.16-.01.45-.09.75-.52.66-.98Z"/>
      <path class="cls-24" d="m48.19,29.24h0c.46,0,.84-.37.84-.83,0-.46-.37-.84-.83-.84-.46,0-.84.37-.84.83,0,.46.37.84.83.84Z"/>
      <path class="cls-35" d="m52.84,42.41c-.33.32-.33.85-.01,1.18.16.17.38.25.6.25s.42-.08.59-.23c.33-.32.33-.85.01-1.18-.32-.33-.85-.34-1.18-.02Z"/>
      <path class="cls-47" d="m48.5,23.93c.05.01.1.01.14.01.4,0,.75-.28.83-.69.08-.46-.22-.89-.68-.96-.46-.08-.89.22-.96.67-.08.46.22.89.67.97Z"/>
      <path class="cls-2" d="m52.13,14.01c.14.1.31.14.47.14.27,0,.53-.13.69-.37.26-.38.16-.9-.22-1.16-.38-.26-.9-.16-1.16.22-.26.39-.16.9.22,1.16Z"/>
      <path class="cls-31" d="m58.01,45.63c-.39-.25-.91-.14-1.15.25-.25.39-.14.91.25,1.15.14.09.3.13.45.13.27,0,.55-.13.7-.38.25-.39.14-.9-.25-1.15Z"/>
      <path class="cls-17" d="m63,49.21c.19-.42.01-.91-.41-1.11-.42-.19-.91-.01-1.11.41-.19.42-.01.92.41,1.12.11.05.23.07.35.07.31,0,.62-.18.76-.48Z"/>
      <path class="cls-16" d="m49.78,18.77c.1.04.21.06.31.06.33,0,.65-.2.78-.52.17-.43-.03-.91-.46-1.09-.42-.17-.91.03-1.09.46-.17.42.03.91.46,1.09Z"/>
      <path class="cls-10" d="m57.36,8.96c.22,0,.44-.09.59-.25.16-.16.25-.37.25-.59s-.09-.44-.25-.6c-.31-.31-.87-.31-1.18,0-.16.16-.25.37-.25.6s.09.43.25.59c.16.16.37.25.59.25Z"/>
      <path class="cls-21" d="m44.05,74.14c-.16.16-.25.37-.25.59s.09.44.25.59c.16.16.37.25.59.25s.43-.09.59-.25c.16-.15.25-.37.25-.59s-.09-.43-.25-.59c-.31-.31-.87-.31-1.18,0Z"/>
      <path class="cls-41" d="m47.84,69.04c.31,0,.61-.17.75-.46.21-.42.03-.92-.38-1.12-.42-.21-.92-.03-1.12.38-.21.42-.03.92.38,1.12.12.06.24.08.37.08Z"/>
      <path class="cls-29" d="m49.89,64.04c.12.06.25.09.37.09.31,0,.61-.17.75-.47.21-.42.03-.91-.38-1.12-.42-.2-.92-.03-1.12.38-.21.42-.03.92.38,1.12Z"/>
      <path class="cls-43" d="m53.68,54.54c-.16.16-.25.37-.25.59s.09.44.25.6c.16.15.37.24.59.24s.43-.09.59-.25c.16-.16.25-.37.25-.59s-.09-.43-.25-.59c-.31-.31-.87-.31-1.18,0Z"/>
    </g>
  </g>
</svg>