<?xml version="1.0" encoding="UTF-8"?>
<svg id="Camada_2" data-name="Camada 2" xmlns="http://www.w3.org/2000/svg" xmlns:xlink="http://www.w3.org/1999/xlink" viewBox="0 0 258.17 276.65">
  <defs>
    <style>
      .cls-1 {
        fill: url(#linear-gradient-38);
      }

      .cls-1, .cls-2, .cls-3, .cls-4, .cls-5, .cls-6, .cls-7, .cls-8, .cls-9, .cls-10, .cls-11, .cls-12, .cls-13, .cls-14, .cls-15, .cls-16, .cls-17, .cls-18, .cls-19, .cls-20, .cls-21, .cls-22, .cls-23, .cls-24, .cls-25, .cls-26, .cls-27, .cls-28, .cls-29, .cls-30, .cls-31, .cls-32, .cls-33, .cls-34, .cls-35, .cls-36, .cls-37, .cls-38, .cls-39, .cls-40, .cls-41, .cls-42, .cls-43, .cls-44, .cls-45 {
        stroke-width: 0px;
      }

      .cls-2 {
        fill: url(#linear-gradient-12);
      }

      .cls-3 {
        fill: url(#linear-gradient-17);
      }

      .cls-4 {
        fill: url(#linear-gradient-19);
      }

      .cls-5 {
        fill: url(#linear-gradient-33);
      }

      .cls-6 {
        fill: url(#linear-gradient);
      }

      .cls-7 {
        fill: url(#linear-gradient-21);
      }

      .cls-8 {
        fill: url(#linear-gradient-6);
      }

      .cls-9 {
        fill: url(#linear-gradient-42);
      }

      .cls-10 {
        fill: url(#linear-gradient-15);
      }

      .cls-11 {
        fill: url(#linear-gradient-11);
      }

      .cls-12 {
        fill: url(#linear-gradient-5);
      }

      .cls-13 {
        fill: url(#linear-gradient-31);
      }

      .cls-14 {
        fill: url(#linear-gradient-34);
      }

      .cls-15 {
        fill: url(#linear-gradient-41);
      }

      .cls-16 {
        fill: url(#linear-gradient-40);
      }

      .cls-17 {
        fill: url(#linear-gradient-13);
      }

      .cls-18 {
        fill: url(#linear-gradient-23);
      }

      .cls-19 {
        fill: url(#linear-gradient-25);
      }

      .cls-20 {
        fill: url(#linear-gradient-43);
      }

      .cls-21 {
        fill: url(#linear-gradient-16);
      }

      .cls-22 {
        fill: url(#linear-gradient-22);
      }

      .cls-23 {
        fill: url(#linear-gradient-35);
      }

      .cls-24 {
        fill: url(#linear-gradient-32);
      }

      .cls-25 {
        fill: url(#linear-gradient-20);
      }

      .cls-26 {
        fill: url(#linear-gradient-14);
      }

      .cls-27 {
        fill: url(#linear-gradient-2);
      }

      .cls-28 {
        fill: url(#linear-gradient-45);
      }

      .cls-29 {
        fill: url(#linear-gradient-7);
      }

      .cls-30 {
        fill: url(#linear-gradient-39);
      }

      .cls-31 {
        fill: url(#linear-gradient-3);
      }

      .cls-32 {
        fill: url(#linear-gradient-9);
      }

      .cls-33 {
        fill: url(#linear-gradient-27);
      }

      .cls-34 {
        fill: url(#linear-gradient-36);
      }

      .cls-35 {
        fill: url(#linear-gradient-8);
      }

      .cls-36 {
        fill: url(#linear-gradient-24);
      }

      .cls-37 {
        fill: url(#linear-gradient-26);
      }

      .cls-38 {
        fill: url(#linear-gradient-18);
      }

      .cls-39 {
        fill: url(#linear-gradient-30);
      }

      .cls-40 {
        fill: url(#linear-gradient-44);
      }

      .cls-41 {
        fill: url(#linear-gradient-29);
      }

      .cls-42 {
        fill: url(#linear-gradient-28);
      }

      .cls-43 {
        fill: url(#linear-gradient-10);
      }

      .cls-44 {
        fill: url(#linear-gradient-4);
      }

      .cls-45 {
        fill: url(#linear-gradient-37);
      }
    </style>
    <linearGradient id="linear-gradient" x1="5.15" y1="285.62" x2="245.09" y2="45.68" gradientUnits="userSpaceOnUse">
      <stop offset="0" stop-color="#436cc4"/>
      <stop offset="1" stop-color="#c512d4"/>
    </linearGradient>
    <linearGradient id="linear-gradient-2" x1="-17.19" y1="263.25" x2="222.71" y2="23.35" xlink:href="#linear-gradient"/>
    <linearGradient id="linear-gradient-3" x1="-105.27" y1="175.12" x2="134.6" y2="-64.74" xlink:href="#linear-gradient"/>
    <linearGradient id="linear-gradient-4" x1="-95.85" y1="184.63" x2="144.1" y2="-55.32" xlink:href="#linear-gradient"/>
    <linearGradient id="linear-gradient-5" x1="-101.8" y1="178.7" x2="138.17" y2="-61.27" xlink:href="#linear-gradient"/>
    <linearGradient id="linear-gradient-6" x1="-87.99" y1="192.46" x2="151.93" y2="-47.46" xlink:href="#linear-gradient"/>
    <linearGradient id="linear-gradient-7" x1="-43.75" y1="236.68" x2="196.13" y2="-3.2" xlink:href="#linear-gradient"/>
    <linearGradient id="linear-gradient-8" x1="-78.72" y1="201.76" x2="161.24" y2="-38.2" xlink:href="#linear-gradient"/>
    <linearGradient id="linear-gradient-9" x1="-67.85" y1="212.64" x2="172.12" y2="-27.32" xlink:href="#linear-gradient"/>
    <linearGradient id="linear-gradient-10" x1="-55.87" y1="224.62" x2="184.1" y2="-15.35" xlink:href="#linear-gradient"/>
    <linearGradient id="linear-gradient-11" x1="-32.09" y1="248.35" x2="207.81" y2="8.46" xlink:href="#linear-gradient"/>
    <linearGradient id="linear-gradient-12" x1="-106.03" y1="174.47" x2="133.94" y2="-65.49" xlink:href="#linear-gradient"/>
    <linearGradient id="linear-gradient-13" x1="-18.69" y1="261.79" x2="221.25" y2="21.85" xlink:href="#linear-gradient"/>
    <linearGradient id="linear-gradient-14" x1="-24.08" y1="256.4" x2="215.87" y2="16.45" xlink:href="#linear-gradient"/>
    <linearGradient id="linear-gradient-15" x1="-28.12" y1="252.36" x2="211.84" y2="12.39" xlink:href="#linear-gradient"/>
    <linearGradient id="linear-gradient-16" x1="-34.86" y1="245.63" x2="205.11" y2="5.66" xlink:href="#linear-gradient"/>
    <linearGradient id="linear-gradient-17" x1="-12.4" y1="268.1" x2="227.58" y2="28.12" xlink:href="#linear-gradient"/>
    <linearGradient id="linear-gradient-18" x1="-100.52" y1="180" x2="139.47" y2="-59.98" xlink:href="#linear-gradient"/>
    <linearGradient id="linear-gradient-19" x1="-73.91" y1="206.58" x2="166.05" y2="-33.38" xlink:href="#linear-gradient"/>
    <linearGradient id="linear-gradient-20" x1="-96.96" y1="183.49" x2="142.96" y2="-56.43" xlink:href="#linear-gradient"/>
    <linearGradient id="linear-gradient-21" x1="-63.03" y1="217.44" x2="176.91" y2="-22.49" xlink:href="#linear-gradient"/>
    <linearGradient id="linear-gradient-22" x1="-38.95" y1="241.51" x2="200.97" y2="1.59" xlink:href="#linear-gradient"/>
    <linearGradient id="linear-gradient-23" x1="-83.19" y1="197.29" x2="156.76" y2="-42.66" xlink:href="#linear-gradient"/>
    <linearGradient id="linear-gradient-24" x1="-27.27" y1="253.18" x2="212.64" y2="13.26" xlink:href="#linear-gradient"/>
    <linearGradient id="linear-gradient-25" x1="-51.04" y1="229.42" x2="188.89" y2="-10.51" xlink:href="#linear-gradient"/>
    <linearGradient id="linear-gradient-26" x1="-91.03" y1="189.44" x2="148.91" y2="-50.5" xlink:href="#linear-gradient"/>
    <linearGradient id="linear-gradient-27" x1="-101.21" y1="179.29" x2="138.76" y2="-60.67" xlink:href="#linear-gradient"/>
    <linearGradient id="linear-gradient-28" x1="-13.88" y1="266.6" x2="226.07" y2="26.65" xlink:href="#linear-gradient"/>
    <linearGradient id="linear-gradient-29" x1="-19.25" y1="261.2" x2="220.64" y2="21.31" xlink:href="#linear-gradient"/>
    <linearGradient id="linear-gradient-30" x1="-23.3" y1="257.16" x2="216.62" y2="17.25" xlink:href="#linear-gradient"/>
    <linearGradient id="linear-gradient-31" x1="-30.03" y1="250.43" x2="209.89" y2="10.5" xlink:href="#linear-gradient"/>
    <linearGradient id="linear-gradient-32" x1="-57" y1="223.45" x2="182.92" y2="-16.46" xlink:href="#linear-gradient"/>
    <linearGradient id="linear-gradient-33" x1="-67.89" y1="212.6" x2="172.07" y2="-27.36" xlink:href="#linear-gradient"/>
    <linearGradient id="linear-gradient-34" x1="-77.17" y1="203.3" x2="162.77" y2="-36.64" xlink:href="#linear-gradient"/>
    <linearGradient id="linear-gradient-35" x1="-45" y1="235.42" x2="194.88" y2="-4.46" xlink:href="#linear-gradient"/>
    <linearGradient id="linear-gradient-36" x1="-85.02" y1="195.47" x2="154.94" y2="-44.49" xlink:href="#linear-gradient"/>
    <linearGradient id="linear-gradient-37" x1="-94.47" y1="186" x2="145.47" y2="-53.94" xlink:href="#linear-gradient"/>
    <linearGradient id="linear-gradient-38" x1="-32.94" y1="247.54" x2="207.01" y2="7.59" xlink:href="#linear-gradient"/>
    <linearGradient id="linear-gradient-39" x1="-21.28" y1="259.21" x2="218.68" y2="19.25" xlink:href="#linear-gradient"/>
    <linearGradient id="linear-gradient-40" x1="-90.94" y1="189.52" x2="148.99" y2="-50.41" xlink:href="#linear-gradient"/>
    <linearGradient id="linear-gradient-41" x1="-95.18" y1="185.3" x2="144.77" y2="-54.65" xlink:href="#linear-gradient"/>
    <linearGradient id="linear-gradient-42" x1="-7.86" y1="272.62" x2="232.1" y2="32.66" xlink:href="#linear-gradient"/>
    <linearGradient id="linear-gradient-43" x1="-13.24" y1="267.23" x2="226.7" y2="27.29" xlink:href="#linear-gradient"/>
    <linearGradient id="linear-gradient-44" x1="-17.29" y1="263.19" x2="222.66" y2="23.24" xlink:href="#linear-gradient"/>
    <linearGradient id="linear-gradient-45" x1="-24.03" y1="256.46" x2="215.93" y2="16.5" xlink:href="#linear-gradient"/>
  </defs>
  <g id="Camada_1-2" data-name="Camada 1">
    <g>
      <path class="cls-6" d="m252.3,156.05c-3.9-9.11-9.6-16.99-16.92-23.41-7.18-6.27-15.91-11.78-25.96-16.36-9.89-4.5-21.1-8.68-33.28-12.41-8.31-2.68-14.18-4.41-18.9-5.8-7.3-2.16-11.32-3.35-16.8-5.76-3.78-1.66-6.66-3.47-8.56-5.38-1.54-1.54-2.29-3.5-2.29-6,0-3.36,1.17-5.46,3.8-6.82,3.31-1.71,7.94-2.57,13.76-2.57,7.52,0,15.34,1.26,23.26,3.74,16.51,5.18,30.73,11.5,44.74,19.9l3.29,1.97,34.68-66.48-3.29-1.64c-20.32-10.16-43.04-20.36-71.5-26.13-9.48-1.92-19.09-2.89-28.56-2.89-27.75,0-52.45,8.13-71.41,23.5-.05.04-.1.08-.14.12-1.36-1.2-3.65-1.18-4.96.13-.67.67-1.05,1.61-1.05,2.57,0,.74.25,1.48.68,2.09-3.75,3.65-7.16,7.64-10.18,12-.1-.08-.19-.17-.29-.25-1.66-1.12-3.9-.69-5.03.96-1.12,1.66-.69,3.9.98,5.02.18.12.38.19.57.27-1.16,2.01-2.28,4.07-3.3,6.2-.44.92-.83,1.87-1.24,2.81-.24-.18-.5-.34-.79-.45-1.84-.76-3.96.13-4.7,1.99-.76,1.84.14,3.96,1.99,4.7.34.14.68.21,1.03.24-1.04,3.16-1.9,6.44-2.6,9.83-.34-.19-.71-.34-1.12-.41-1.97-.34-3.85.97-4.19,2.94-.34,1.97.98,3.83,2.95,4.18.2.04.41.05.61.05.23,0,.45-.02.66-.06-.44,3.32-.72,6.74-.85,10.25-.39-.15-.82-.24-1.27-.24-2-.02-3.63,1.59-3.65,3.58-.02,2.01,1.59,3.63,3.6,3.65h.02c.45,0,.87-.09,1.27-.24.08,3.55.35,6.95.79,10.22-.42-.08-.86-.09-1.3,0-1.97.38-3.25,2.26-2.87,4.23.32,1.73,1.84,2.94,3.54,2.94.24,0,.45-.04.69-.07.41-.08.79-.24,1.13-.44.76,3.36,1.73,6.58,2.94,9.64-.31.06-.63.16-.93.31-1.77.9-2.48,3.09-1.57,4.86.63,1.25,1.9,1.97,3.22,1.97.56,0,1.12-.13,1.64-.4.22-.11.43-.25.61-.39,1.57,2.92,3.39,5.71,5.46,8.35-.06.05-.13.1-.2.15-1.43,1.39-1.45,3.69-.05,5.11.7.72,1.64,1.08,2.58,1.08.85,0,1.72-.3,2.4-.91,2.31,2.35,4.86,4.59,7.64,6.73-.62,1.58-.07,3.43,1.41,4.39.6.38,1.28.56,1.95.56.86,0,1.72-.32,2.39-.91,2.26,1.47,4.6,2.9,7.12,4.27.66.36,1.35.72,2.04,1.07-.05,1.41.73,2.79,2.1,3.42.49.24,1.01.32,1.52.32.82,0,1.61-.31,2.25-.83,2.18,1.03,4.44,2.04,6.79,3.04-.61.06-1.2.26-1.64.7-.51.5-.79,1.21-.79,1.93s.29,1.41.79,1.91c.51.51,1.21.8,1.92.8s1.41-.29,1.92-.8c.51-.5.79-1.21.79-1.91,0-.59-.2-1.16-.54-1.62,2.06.84,4.19,1.67,6.37,2.48.16.64.47,1.23.95,1.69.67.67,1.59,1.05,2.55,1.05.76,0,1.52-.26,2.14-.71.5.17.99.35,1.5.53,9.02,3.1,16.95,5.44,23.95,7.5,13.4,3.95,23.08,6.8,28.97,11.73,2.29,1.93,3.36,4.06,3.36,6.71,0,2.27-.94,3.93-3.06,5.37-1.7,1.16-5.6,2.53-14.51,2.53-10.01,0-19.98-1.45-29.63-4.31-9.8-2.9-18.7-6.22-26.49-9.87-9.21-4.12-18.18-8.91-26.68-14.25l-3.4-2.14-1.15,2.35c-1.38-1.03-3.51-.95-4.75.29-.67.67-1.05,1.61-1.05,2.55s.38,1.9,1.05,2.57c.46.45,1.03.75,1.64.91l-9.88,20.12c-.18-.14-.38-.27-.6-.38-1.79-.88-3.96-.14-4.84,1.64-.89,1.79-.14,3.96,1.64,4.84.22.11.45.18.68.24l-4.69,9.55c-.18-.14-.38-.27-.6-.37-1.81-.89-3.96-.14-4.84,1.64-.89,1.79-.14,3.96,1.64,4.84.22.11.45.18.68.24l-7.29,14.85c-1.38-1.03-3.52-.93-4.75.3-.67.67-1.05,1.61-1.05,2.55s.38,1.9,1.05,2.57c.69.67,1.61,1.05,2.57,1.05.85,0,1.69-.32,2.33-.87l.63.37c31.58,18.75,78.46,31.34,116.66,31.34,12.34,0,24.8-1.47,37.06-4.37,12.39-2.93,23.66-7.8,33.52-14.46,9.98-6.74,18.12-15.86,24.2-27.1,6.08-11.27,9.17-25.28,9.17-41.66,0-12.82-1.97-23.93-5.87-33.01Z"/>
      <path class="cls-27" d="m78.67,166.12c-.18.16-.27.4-.27.65,0,.23.09.47.27.63.16.16.4.25.63.25s.47-.09.63-.25c.18-.16.27-.4.27-.63,0-.25-.09-.49-.27-.65-.32-.32-.94-.32-1.27,0Z"/>
      <path class="cls-31" d="m27.45,43.65c.29-.42.18-.98-.24-1.25-.41-.27-.98-.18-1.26.23-.27.42-.16.98.25,1.27.16.11.32.14.5.14.29,0,.58-.13.74-.4Z"/>
      <path class="cls-44" d="m14.06,73.99c-.49-.09-.96.23-1.05.74-.09.49.25.96.74,1.05h.14c.43,0,.81-.31.9-.74.07-.49-.25-.96-.74-1.05Z"/>
      <path class="cls-12" d="m18.58,59.23c.36,0,.71-.22.85-.56.18-.47-.04-1-.51-1.18-.47-.2-.99.02-1.18.49-.2.47.04,1,.49,1.18.13.05.23.07.34.07Z"/>
      <path class="cls-8" d="m13.32,92.05c.02-.5-.4-.9-.88-.9-.51-.02-.9.4-.92.89,0,.51.42.9.9.92.51,0,.9-.4.9-.9Z"/>
      <path class="cls-29" d="m43.26,149.39c-.41-.27-.98-.14-1.25.27-.27.42-.14.97.27,1.25.14.11.33.14.49.14.29,0,.6-.14.76-.42.27-.41.14-.97-.27-1.25Z"/>
      <path class="cls-35" d="m13.68,108.29c-.49.11-.81.58-.7,1.07h-.02c.09.43.47.74.89.74.07,0,.13-.02.18-.02.49-.11.81-.58.72-1.07-.09-.49-.58-.81-1.07-.72Z"/>
      <path class="cls-32" d="m18.92,124.67c-.45.22-.63.76-.4,1.21.16.31.47.49.79.49.14,0,.29-.02.42-.09.43-.23.61-.78.4-1.21-.23-.45-.78-.63-1.21-.4Z"/>
      <path class="cls-43" d="m28.73,138.75c-.34.34-.36.9-.02,1.27.18.18.41.27.65.27s.45-.07.63-.25c.36-.34.36-.92.02-1.28-.34-.34-.92-.36-1.28,0Z"/>
      <path class="cls-11" d="m57.94,159.24c.34,0,.67-.2.81-.52.22-.45.02-.99-.43-1.21-.45-.2-.99-.02-1.19.45-.22.45-.02.98.43,1.19.13.05.25.09.38.09Z"/>
      <path class="cls-2" d="m42.14,27.21c.23,0,.47-.09.63-.25.18-.18.27-.4.27-.63,0-.25-.09-.47-.27-.65-.34-.32-.92-.34-1.28,0-.16.18-.25.4-.25.65,0,.23.09.45.27.63.16.16.4.25.63.25Z"/>
      <path class="cls-17" d="m.27,241.56c-.18.16-.27.4-.27.63,0,.25.09.47.27.65.16.16.4.25.63.25s.47-.09.63-.25c.18-.18.27-.4.27-.65,0-.23-.09-.47-.27-.63-.32-.34-.94-.34-1.27,0Z"/>
      <path class="cls-26" d="m10.9,221.82c.14.07.27.09.4.09.34,0,.67-.18.81-.51.24-.43.04-.97-.4-1.19-.45-.23-.99-.04-1.21.4-.23.45-.04.99.4,1.21Z"/>
      <path class="cls-10" d="m19.93,205.52c.22-.45.02-1-.41-1.21-.45-.22-.99-.04-1.21.41-.22.43-.04.98.41,1.19.13.07.25.11.4.11.32,0,.65-.2.81-.5Z"/>
      <path class="cls-21" d="m32.11,179.55c.24,0,.47-.09.63-.25.18-.18.27-.4.27-.65,0-.23-.09-.45-.27-.63-.32-.34-.92-.34-1.28,0-.16.18-.25.4-.25.63,0,.25.09.47.27.65.16.16.4.25.63.25Z"/>
      <path class="cls-3" d="m90.22,168.04c.32-.34.52-.79.52-1.27s-.2-.96-.52-1.28c-.69-.67-1.9-.67-2.57,0-.33.32-.52.79-.52,1.28s.2.94.52,1.27c.34.34.81.54,1.28.54s.94-.2,1.28-.54Z"/>
      <path class="cls-38" d="m36.34,44.95c.58,0,1.14-.27,1.48-.8.58-.81.34-1.95-.47-2.49-.83-.56-1.95-.34-2.51.47-.56.83-.34,1.95.49,2.51.31.22.65.31,1.01.31Z"/>
      <path class="cls-4" d="m21.7,109.52c.16.87.92,1.48,1.77,1.48.11,0,.23-.02.34-.04.98-.2,1.63-1.14,1.45-2.11-.2-1-1.14-1.63-2.12-1.45-.99.2-1.62,1.14-1.44,2.11Z"/>
      <path class="cls-25" d="m28.21,60.13c.72,0,1.39-.43,1.68-1.14.36-.92-.07-1.97-.99-2.35-.94-.38-1.99.07-2.37,1-.36.94.07,1.99,1.01,2.35.22.09.45.14.67.14Z"/>
      <path class="cls-7" d="m28.14,123.85c-.9.45-1.25,1.54-.79,2.44.32.61.96.97,1.61.97.27,0,.56-.05.81-.2.9-.45,1.25-1.54.8-2.42-.45-.89-1.54-1.25-2.42-.8Z"/>
      <path class="cls-22" d="m53.38,148.63c-.85-.54-1.95-.29-2.49.54-.54.85-.31,1.97.54,2.49.31.2.63.29.98.29.6,0,1.17-.29,1.52-.83.54-.83.29-1.95-.54-2.49Z"/>
      <path class="cls-18" d="m22.05,93.85c1,0,1.81-.81,1.81-1.81.02-.99-.79-1.81-1.79-1.81-.99-.02-1.81.8-1.83,1.79,0,1,.8,1.81,1.81,1.82Z"/>
      <path class="cls-36" d="m65.93,157.58c-.41.9-.02,1.97.89,2.38.23.13.51.18.76.18.69,0,1.34-.4,1.64-1.05.41-.92.02-1.99-.89-2.4s-1.99-.04-2.4.89Z"/>
      <path class="cls-19" d="m39,141.19c.45,0,.9-.16,1.26-.51.71-.7.72-1.84.04-2.55-.7-.72-1.84-.74-2.57-.04-.71.69-.72,1.84-.04,2.55.36.36.83.54,1.3.54Z"/>
      <path class="cls-37" d="m23.85,73.11c-.99-.18-1.93.47-2.1,1.46-.18.98.49,1.92,1.46,2.1.11.02.22.02.31.02.87,0,1.63-.61,1.79-1.5.16-.97-.49-1.91-1.46-2.08Z"/>
      <path class="cls-33" d="m51.78,28.11c.47,0,.94-.18,1.28-.53.32-.32.52-.79.52-1.26s-.2-.94-.54-1.28c-.67-.68-1.88-.67-2.55,0-.34.33-.52.8-.52,1.28s.2.94.52,1.26c.32.34.8.53,1.28.53Z"/>
      <path class="cls-42" d="m9.25,240.93c-.34.32-.52.79-.52,1.26s.18.94.52,1.28c.33.34.79.52,1.28.52s.94-.18,1.26-.52c.34-.34.54-.8.54-1.28s-.2-.94-.54-1.26c-.67-.69-1.88-.67-2.55,0Z"/>
      <path class="cls-41" d="m20.93,222.82c.67,0,1.32-.36,1.63-1,.43-.9.07-1.99-.83-2.42-.89-.45-1.97-.07-2.4.81-.45.9-.07,1.99.81,2.42.25.13.54.18.8.18Z"/>
      <path class="cls-39" d="m29.55,203.5c-.9-.43-1.99-.07-2.42.83-.45.89-.07,1.97.81,2.4.27.13.54.2.81.2.65,0,1.3-.38,1.61-1.01.45-.9.07-1.99-.81-2.42Z"/>
      <path class="cls-13" d="m43.03,177.38c-.67-.67-1.9-.69-2.57,0-.34.32-.52.79-.52,1.26s.18.96.52,1.28c.34.34.8.52,1.28.52s.94-.18,1.27-.52c.34-.34.54-.8.54-1.28s-.2-.94-.53-1.26Z"/>
      <path class="cls-24" d="m43.41,124.23c-.69-1.34-2.31-1.86-3.65-1.18-1.34.67-1.86,2.31-1.19,3.65v-.02c.49.94,1.43,1.48,2.42,1.48.42,0,.83-.09,1.23-.29,1.34-.68,1.86-2.31,1.19-3.65Z"/>
      <path class="cls-5" d="m38.19,108.68c-.29-1.46-1.7-2.42-3.18-2.15-1.46.29-2.42,1.7-2.15,3.18.25,1.28,1.39,2.19,2.66,2.19.18,0,.34,0,.52-.04,1.46-.29,2.42-1.7,2.15-3.18Z"/>
      <path class="cls-14" d="m34.07,94.76h.02c1.5,0,2.71-1.21,2.71-2.69.02-1.5-1.19-2.73-2.69-2.73-1.5-.02-2.71,1.19-2.73,2.69,0,1.48,1.19,2.71,2.69,2.73Z"/>
      <path class="cls-23" d="m49.14,137.45c-1.07,1.05-1.08,2.76-.04,3.83.52.54,1.23.81,1.93.81s1.37-.25,1.9-.76c1.07-1.05,1.09-2.77.04-3.83-1.03-1.08-2.75-1.1-3.83-.05Z"/>
      <path class="cls-34" d="m35.1,77.55c.16.04.32.04.47.04,1.3,0,2.44-.92,2.68-2.24.25-1.48-.72-2.88-2.21-3.13-1.48-.27-2.87.72-3.13,2.18-.27,1.48.72,2.89,2.19,3.14Z"/>
      <path class="cls-45" d="m46.86,45.39c.45.33.99.47,1.52.47.87,0,1.72-.41,2.24-1.19.83-1.23.5-2.93-.72-3.76-1.25-.83-2.93-.51-3.76.72-.85,1.25-.52,2.93.72,3.76Z"/>
      <path class="cls-1" d="m65.91,147.87c-1.27-.81-2.95-.45-3.74.81-.81,1.27-.45,2.95.81,3.74.45.29.96.43,1.46.43.88,0,1.77-.43,2.28-1.25.81-1.27.45-2.93-.81-3.74Z"/>
      <path class="cls-30" d="m82.07,159.46c.63-1.36.04-2.96-1.32-3.6-1.36-.61-2.96-.04-3.6,1.32-.63,1.37-.04,2.98,1.32,3.61.36.16.76.23,1.14.23,1.01,0,2.01-.58,2.46-1.57Z"/>
      <path class="cls-16" d="m39.23,60.84c.32.13.67.2,1.01.2,1.07,0,2.1-.65,2.51-1.7.56-1.39-.11-2.96-1.5-3.52-1.37-.56-2.96.11-3.52,1.5-.56,1.37.11,2.96,1.5,3.52Z"/>
      <path class="cls-15" d="m63.81,29.03c.72,0,1.41-.31,1.92-.8.51-.51.79-1.21.79-1.91s-.29-1.43-.79-1.93c-1.01-.99-2.82-.99-3.83,0-.51.51-.8,1.21-.8,1.93s.29,1.41.8,1.9c.5.51,1.19.81,1.91.81Z"/>
      <path class="cls-9" d="m20.66,240.27c-.51.51-.8,1.21-.8,1.91s.29,1.41.8,1.92c.51.5,1.19.79,1.91.79s1.41-.29,1.92-.79c.51-.49.79-1.19.79-1.92s-.29-1.41-.79-1.91c-1.01-.99-2.82-1.01-3.83,0Z"/>
      <path class="cls-20" d="m32.96,223.72c1.01,0,1.97-.54,2.44-1.5.67-1.36.11-2.98-1.23-3.63-1.36-.67-2.98-.11-3.63,1.23-.67,1.36-.11,2.98,1.23,3.63.38.2.79.27,1.19.27Z"/>
      <path class="cls-40" d="m39.58,207.55c.4.2.8.29,1.19.29,1.01,0,1.97-.56,2.44-1.52.67-1.36.11-2.96-1.23-3.63-1.36-.65-2.98-.11-3.63,1.23-.67,1.36-.11,2.98,1.23,3.63Z"/>
      <path class="cls-28" d="m51.87,176.73c-.5.5-.79,1.21-.79,1.91s.29,1.41.79,1.93c.51.49,1.19.78,1.92.78s1.41-.29,1.91-.79c.51-.5.8-1.19.8-1.92s-.29-1.39-.8-1.91c-1.01-1-2.82-1.01-3.83,0Z"/>
    </g>
  </g>
</svg>