<svg xmlns="http://www.w3.org/2000/svg" data-name="Layer 1" viewBox="0 0 128 160" x="0px" y="0px"><title>a</title><path d="M50.34637,98.18249l-9.45845,4.97539-2.80932,1.4763a2.862,2.862,0,0,0-.69238.50977L37.19,105.34a2.86229,2.86229,0,0,0,0,4.04773l3.32741,3.32741-4.97528,9.45834a2.86223,2.86223,0,0,0,3.86557,3.86568l9.45845-4.97539,2.80921-1.4763a2.85742,2.85742,0,0,0,.6925-.50977l.19607-.19607a2.86208,2.86208,0,0,0,0-4.04773l-3.3273-3.32741,4.97516-9.45834A2.86216,2.86216,0,0,0,50.34637,98.18249Z"/><path d="M76.03985,98.18249l-9.45834,4.97539-2.80932,1.4763a2.862,2.862,0,0,0-.69238.50977l-.19618.19607a2.86229,2.86229,0,0,0,0,4.04773l3.32741,3.32741-4.97528,9.45834a2.86223,2.86223,0,0,0,3.86557,3.86568l9.45834-4.97539,2.80944-1.4763a2.859,2.859,0,0,0,.69238-.50977l.19607-.19607a2.86208,2.86208,0,0,0,0-4.04773l-3.32741-3.32741,4.97539-9.45834A2.86226,2.86226,0,0,0,76.03985,98.18249Z"/><path d="M84.25112,33.26326A37.37743,37.37743,0,0,1,92.8625,46.6241,15.68071,15.68071,0,1,0,75.68773,26.83836,37.56912,37.56912,0,0,1,84.25112,33.26326Z"/><path d="M90.78648,12.71286a2.5962,2.5962,0,0,0,2.59627-2.596V4.21422a2.59622,2.59622,0,0,0-5.19243,0v5.9026A2.59618,2.59618,0,0,0,90.78648,12.71286Z"/><path d="M107.44658,18.09292l4.1738-4.17357a2.59613,2.59613,0,0,0,.00011-3.67155l-.00011-.00011a2.5961,2.5961,0,0,0-3.67144,0L103.775,14.42137a2.59618,2.59618,0,0,0,3.67155,3.67155Z"/><rect x="109.1552" y="28.48531" width="11.0948" height="5.19243" rx="2.59616" ry="2.59616"/><path d="M107.44658,44.07a2.59614,2.59614,0,1,0-3.67144,3.67155l4.1738,4.17369a2.59614,2.59614,0,0,0,3.67144-3.67155Z"/><path d="M74.12661,18.09281a2.59614,2.59614,0,1,0,3.67155-3.67144l-4.17392-4.17369a2.59614,2.59614,0,1,0-3.67133,3.67167Z"/><path d="M87.61581,53.64382h-.16118a30.36253,30.36253,0,0,0-59.46428,0H27.8319a20.08326,20.08326,0,0,0,0,40.16653H87.61581a20.08326,20.08326,0,0,0,0-40.16653Z"/><text x="0" y="143" fill="#000000" font-size="5px" font-weight="bold" font-family="'Helvetica Neue', Helvetica, Arial-Unicode, Arial, Sans-serif">Created by Injamamul hoq miraz</text><text x="0" y="148" fill="#000000" font-size="5px" font-weight="bold" font-family="'Helvetica Neue', Helvetica, Arial-Unicode, Arial, Sans-serif">from the Noun Project</text></svg>