<svg xmlns="http://www.w3.org/2000/svg" version="1.1" viewBox="-5.0 -10.0 110.0 135.0">
 <path d="m49.969 17.188c-1.7227 0-3.125 1.3984-3.125 3.125v9.3789c0 1.7266 1.3984 3.125 3.125 3.125s3.1211-1.3984 3.1211-3.125v-9.3789c0.003906-1.7266-1.3945-3.125-3.1211-3.125zm-20.094 5.4492c-0.61328-0.042969-1.2305 0.097656-1.7695 0.41016-1.4922 0.86328-2 2.7734-1.1406 4.2656l4.6914 8.1211c0.86328 1.4922 2.7695 2.0039 4.2617 1.1406 1.4922-0.86328 2.0039-2.7695 1.1445-4.2656l-4.6797-8.1211c-0.41797-0.71875-1.1016-1.2383-1.9023-1.4531-0.19922-0.054687-0.40234-0.085937-0.60547-0.097656zm40.184 0c-0.20312 0.011719-0.40625 0.046875-0.60547 0.10156-0.80078 0.21094-1.4844 0.73438-1.9023 1.4531l-4.6797 8.1211c-0.86328 1.4922-0.35156 3.4023 1.1406 4.2656 1.4922 0.86328 3.4023 0.35156 4.2617-1.1406l4.6914-8.1211c0.85938-1.4961 0.34375-3.4062-1.1523-4.2656-0.53516-0.30859-1.1484-0.44922-1.7578-0.41016zm-20.051 13.301c-4.3203 0-8.6367 1.1172-12.504 3.3477-6.8203 3.9375-11.332 10.828-12.301 18.527h-15.828c-0.82812 0-1.625 0.32812-2.2109 0.91406-0.58594 0.58594-0.91406 1.3828-0.91406 2.2109s0.32812 1.625 0.91406 2.2109c0.58594 0.58594 1.3828 0.91406 2.2109 0.91406h81.25c0.82812 0 1.625-0.32812 2.2109-0.91406 0.58594-0.58594 0.91406-1.3828 0.91406-2.2109s-0.32812-1.625-0.91406-2.2109c-0.58594-0.58594-1.3828-0.91406-2.2109-0.91406h-15.828c-0.96484-7.6992-5.4688-14.59-12.289-18.527-3.8633-2.2305-8.1836-3.3477-12.5-3.3477zm-35.41 1.5664c-1 0.070313-1.9492 0.62109-2.4883 1.5508-0.87109 1.5-0.35938 3.418 1.1406 4.2812l8.1172 4.6836c1.4922 0.86328 3.3984 0.35156 4.2617-1.1406 0.86328-1.4961 0.35156-3.4062-1.1406-4.2695l-8.1133-4.6953c-0.55859-0.32422-1.1797-0.45312-1.7773-0.41016zm70.723 0c-0.60937-0.039062-1.2227 0.10156-1.7578 0.41016l-8.1133 4.6953c-1.4922 0.86328-2.0039 2.7773-1.1406 4.2695 0.86328 1.4922 2.7695 2.0039 4.2617 1.1406l8.1133-4.6836c1.5-0.86328 2.0117-2.7812 1.1445-4.2812-0.41797-0.71484-1.1016-1.2383-1.9023-1.4492-0.19922-0.054688-0.40625-0.089844-0.60938-0.10156zm-35.312 4.6758c3.2383 0 6.4766 0.83984 9.3789 2.5156 4.8359 2.793 7.5742 7.7266 8.5352 13.113h-35.828c0.96094-5.3867 3.6953-10.32 8.5352-13.113 2.9023-1.6758 6.1406-2.5156 9.3789-2.5156zm-34.383 25.008c-0.82812 0-1.625 0.32812-2.2109 0.91406-0.58594 0.58594-0.91406 1.3828-0.91406 2.2109s0.32812 1.625 0.91406 2.2109c0.58594 0.58594 1.3828 0.91406 2.2109 0.91406h68.75c0.82812 0 1.625-0.32812 2.2109-0.91406 0.58594-0.58594 0.91406-1.3828 0.91406-2.2109s-0.32812-1.625-0.91406-2.2109c-0.58594-0.58594-1.3828-0.91406-2.2109-0.91406zm6.25 9.375c-0.82812 0-1.625 0.32812-2.2109 0.91406-0.58594 0.58594-0.91406 1.3828-0.91406 2.2109s0.32812 1.625 0.91406 2.2109c0.58594 0.58594 1.3828 0.91406 2.2109 0.91406h56.25c0.82812 0 1.625-0.32812 2.2109-0.91406 0.58594-0.58594 0.91406-1.3828 0.91406-2.2109s-0.32812-1.625-0.91406-2.2109c-0.58594-0.58594-1.3828-0.91406-2.2109-0.91406z"/>
<text x="0.0" y="117.5" font-size="5.0" font-weight="bold" font-family="Arbeit Regular, Helvetica, Arial-Unicode, Arial, Sans-serif" fill="#000000">by Muhammad Naufal Subhiansyah</text><text x="0.0" y="122.5" font-size="5.0" font-weight="bold" font-family="Arbeit Regular, Helvetica, Arial-Unicode, Arial, Sans-serif" fill="#000000">from Noun Project</text></svg>