<svg xmlns="http://www.w3.org/2000/svg" xmlns:xlink="http://www.w3.org/1999/xlink" version="1.1" x="0px" y="0px" viewBox="0 0 60 75" style="enable-background:new 0 0 60 60;" xml:space="preserve"><path d="M27.5,5.4c-2.9,0-5.3,2.4-5.3,5.3v23C18.4,35.7,16,39.6,16,44c0,3.3,1.4,6.4,3.9,8.6c2.1,1.9,4.8,2.9,7.7,2.9  c0.4,0,0.9,0,1.4-0.1c5.2-0.6,9.4-4.8,10-9.9c0.6-4.8-1.8-9.4-6.1-11.6v-23C32.8,7.8,30.4,5.4,27.5,5.4z M36.9,45.2  c-0.5,4.3-4,7.7-8.3,8.2c-2.8,0.3-5.4-0.5-7.5-2.3c-2-1.8-3.2-4.4-3.2-7.1c0-3.7,2.2-7.1,5.6-8.6c0.4-0.2,0.6-0.5,0.6-0.9V10.8  c0-1.8,1.5-3.3,3.3-3.3c1.8,0,3.3,1.5,3.3,3.3v23.6c0,0.4,0.2,0.8,0.6,0.9C35.2,37,37.4,41,36.9,45.2z"/><path d="M28.4,12.1c0-0.6-0.4-1-1-1s-1,0.4-1,1V38c-2.9,0.5-5.1,3-5.1,6c0,3.4,2.7,6.1,6.1,6.1c3.4,0,6.1-2.7,6.1-6.1  c0-3-2.2-5.5-5.1-6V12.1z M31.5,43.9c0,2.3-1.8,4.1-4.1,4.1c-2.3,0-4.1-1.8-4.1-4.1s1.8-4.1,4.1-4.1C29.7,39.9,31.5,41.7,31.5,43.9z  "/><path d="M41.9,15.3h-4.3c-0.6,0-1,0.4-1,1s0.4,1,1,1h4.3c0.6,0,1-0.4,1-1S42.5,15.3,41.9,15.3z"/><path d="M38.5,20.4c0,0.6,0.4,1,1,1H45c0.6,0,1-0.4,1-1s-0.4-1-1-1h-5.6C38.9,19.4,38.5,19.9,38.5,20.4z"/><path d="M37.6,25.5h4.3c0.6,0,1-0.4,1-1s-0.4-1-1-1h-4.3c-0.6,0-1,0.4-1,1S37.1,25.5,37.6,25.5z"/><text x="0" y="75" fill="#000000" font-size="5px" font-weight="bold" font-family="'Helvetica Neue', Helvetica, Arial-Unicode, Arial, Sans-serif">Created by Vectorstall</text><text x="0" y="80" fill="#000000" font-size="5px" font-weight="bold" font-family="'Helvetica Neue', Helvetica, Arial-Unicode, Arial, Sans-serif">from the Noun Project</text></svg>