<svg xmlns="http://www.w3.org/2000/svg" xmlns:xlink="http://www.w3.org/1999/xlink" xml:space="preserve" version="1.1" style="shape-rendering:geometricPrecision;text-rendering:geometricPrecision;image-rendering:optimizeQuality;" viewBox="0 0 333.33 416.66249999999997" x="0px" y="0px" fill-rule="evenodd" clip-rule="evenodd"><defs><style type="text/css">
   
    .fil0 {fill:black;fill-rule:nonzero}
   
  </style></defs><g><path class="fil0" d="M14.69 94.26c-3.7,2.01 -8.33,0.65 -10.35,-3.05 -2.01,-3.7 -0.65,-8.33 3.05,-10.35 0.22,-0.12 77.5,-43.24 162.99,-3.2 78.67,36.84 148.44,3.09 148.64,3 3.81,-1.8 8.37,-0.17 10.17,3.65 1.8,3.81 0.17,8.36 -3.65,10.17 -0.22,0.1 -76.36,36.92 -161.62,-3 -78.43,-36.72 -149.04,2.68 -149.24,2.79zm0 162.64c-3.7,2.02 -8.33,0.65 -10.35,-3.05 -2.01,-3.7 -0.65,-8.33 3.05,-10.35 0.22,-0.12 77.5,-43.24 162.99,-3.2 78.67,36.83 148.44,3.09 148.64,3 3.81,-1.8 8.37,-0.17 10.17,3.65 1.8,3.81 0.17,8.37 -3.65,10.17 -0.22,0.1 -76.36,36.93 -161.62,-3 -78.43,-36.73 -149.04,2.68 -149.24,2.79zm0 -54.21c-3.7,2.02 -8.33,0.65 -10.35,-3.05 -2.01,-3.7 -0.65,-8.33 3.05,-10.34 0.22,-0.12 77.5,-43.24 162.99,-3.21 78.67,36.84 148.44,3.09 148.64,3 3.81,-1.8 8.37,-0.17 10.17,3.65 1.8,3.81 0.17,8.37 -3.65,10.17 -0.22,0.1 -76.36,36.93 -161.62,-3 -78.43,-36.72 -149.04,2.68 -149.24,2.79zm0 -54.21c-3.7,2.01 -8.33,0.65 -10.35,-3.05 -2.01,-3.7 -0.65,-8.33 3.05,-10.34 0.22,-0.12 77.5,-43.24 162.99,-3.21 78.67,36.84 148.44,3.09 148.64,3 3.81,-1.8 8.37,-0.17 10.17,3.65 1.8,3.81 0.17,8.37 -3.65,10.17 -0.22,0.1 -76.36,36.92 -161.62,-3 -78.43,-36.72 -149.04,2.68 -149.24,2.79z"/></g><text x="0" y="348.33" fill="#000000" font-size="5px" font-weight="bold" font-family="'Helvetica Neue', Helvetica, Arial-Unicode, Arial, Sans-serif">Created by SUBAIDA</text><text x="0" y="353.33" fill="#000000" font-size="5px" font-weight="bold" font-family="'Helvetica Neue', Helvetica, Arial-Unicode, Arial, Sans-serif">from the Noun Project</text></svg>